<svg width="46" height="46" fill="none" stroke="#fff" stroke-linecap="round" stroke-linejoin="round" stroke-width="1.5" viewBox="0 0 24 24" xmlns="http://www.w3.org/2000/svg">
  <path d="M8 11 5 6l-3 5"></path>
  <path d="M5 14a3 3 0 0 0 3-3H2a3 3 0 0 0 3 3Z" clip-rule="evenodd"></path>
  <path d="m22 11-3-5-3 5"></path>
  <path d="M19 14a3 3 0 0 0 3-3h-6a3 3 0 0 0 3 3Z" clip-rule="evenodd"></path>
  <path d="M12 3v18"></path>
  <path d="M5 6h14"></path>
  <path d="M5 6h14"></path>
  <path d="M19 21H5"></path>
</svg>